<svg version="1.2" xmlns="http://www.w3.org/2000/svg" viewBox="0 0 512 512" width="512" height="512">
	<title>icon-svg</title>
	<style>
		.s0 { fill: #8773ee } 
		.s1 { fill: #3f7efc } 
		.s2 { fill: #fe9800 } 
		.s3 { fill: #0087ff } 
	</style>
	<path id="Layer" class="s0" d="m386.6 269.5l-187.8 187.7c-7.4 7.5-19.5 7.5-26.9 0l-46.5-46.4c-7.4-7.5-7.4-19.5 0-27l127.8-127.8-74.9-74.9-52.9-52.9c-7.4-7.5-7.4-19.5 0-27l46.5-46.4c7.4-7.5 19.5-7.5 26.9 0l126.4 126.3 61.4 61.4c7.4 7.4 7.4 19.5 0 27z"/>
	<path id="Layer" class="s1" d="m326.6 182.6l-73.4 73.4-28.1-28.1-46.8-46.8-52.9-52.9c-7.4-7.5-7.4-19.5 0-27l46.5-46.4c7.4-7.5 19.5-7.5 26.9 0l99.7 99.7z"/>
	<path id="Layer" class="s2" d="m326.6 182.6l-73.4 73.4-17.8-17.8 73.4-73.5z"/>
	<g id="Layer">
		<path id="Layer" class="s0" d="m494 488.6c-4.1 0-7.5 3.3-7.5 7.5v8.4c0 4.1 3.4 7.5 7.5 7.5 4.2 0 7.5-3.4 7.5-7.5v-8.4c0-4.2-3.3-7.5-7.5-7.5z"/>
		<path id="Layer" class="s0" d="m449.7 488.6c-4.1 0-7.5 3.3-7.5 7.5v8.4c0 4.1 3.4 7.5 7.5 7.5 4.2 0 7.5-3.4 7.5-7.5v-8.4c0-4.2-3.3-7.5-7.5-7.5z"/>
		<path id="Layer" class="s0" d="m405.5 488.6c-4.2 0-7.5 3.3-7.5 7.5v8.4c0 4.1 3.3 7.5 7.5 7.5 4.1 0 7.5-3.4 7.5-7.5v-8.4c0-4.2-3.4-7.5-7.5-7.5z"/>
	</g>
	<g id="Layer">
		<path id="Layer" class="s3" d="m114 7.5c0-4.1-3.3-7.5-7.5-7.5-4.1 0-7.5 3.4-7.5 7.5v8.4c0 4.2 3.4 7.5 7.5 7.5 4.2 0 7.5-3.3 7.5-7.5z"/>
		<path id="Layer" class="s3" d="m62.3 0c-4.2 0-7.5 3.4-7.5 7.5v8.4c0 4.2 3.3 7.5 7.5 7.5 4.1 0 7.5-3.3 7.5-7.5v-8.4c0-4.1-3.4-7.5-7.5-7.5z"/>
		<path id="Layer" class="s3" d="m18 0c-4.2 0-7.5 3.4-7.5 7.5v8.4c0 4.2 3.3 7.5 7.5 7.5 4.1 0 7.5-3.3 7.5-7.5v-8.4c0-4.1-3.4-7.5-7.5-7.5z"/>
	</g>
	<g id="Layer">
	</g>
	<g id="Layer">
	</g>
	<g id="Layer">
	</g>
	<g id="Layer">
	</g>
	<g id="Layer">
	</g>
	<g id="Layer">
	</g>
	<g id="Layer">
	</g>
	<g id="Layer">
	</g>
	<g id="Layer">
	</g>
	<g id="Layer">
	</g>
	<g id="Layer">
	</g>
	<g id="Layer">
	</g>
	<g id="Layer">
	</g>
	<g id="Layer">
	</g>
	<g id="Layer">
	</g>
</svg>