<svg xmlns="http://www.w3.org/2000/svg" version="1.1"
  xmlns:xlink="http://www.w3.org/1999/xlink"
  xmlns:svgjs="http://svgjs.com/svgjs" width="512" height="512" x="0" y="0" viewBox="0 0 66 66" style="enable-background:new 0 0 512 512" xml:space="preserve">
  <g>
    <path d="M29.1 7.5c-4.8-2.9-11.2 0-12 5.7-4 .6-7.1 4.2-6.8 8.5.3 4.1 3.9 7.3 8.1 7.3h5.1c5.6 0 7.6-4.5 8.7-7.1l2.3 4.2c.3.5.9.7 1.4.4s.7-.9.4-1.4l-3.2-5.8c-.3-.5-.9-.7-1.4-.4L25.9 22c-.5.3-.7.9-.4 1.4s.9.7 1.4.4l3.1-1.7c-1.1 2.3-2.7 4.9-6.4 4.9h-5.1c-3.2 0-5.9-2.4-6.2-5.5C12 18 14.7 15.1 18 15c.5 0 1-.4 1-1 .1-5.1 6.2-7.5 9.8-4.3.3.2.6.3.9.2s.6-.3.7-.6c3.7-11 20.3-6.6 18.1 4.6-.1.3 0 .5.2.8.2.2.4.4.7.4 2.9.4 5 2.9 5 5.9 0 3.3-2.7 5.9-6 5.9-1.6.1-3.1.1-4.6 0-3.8-.1-7.3-.3-9.9 3.2l-2.4 3.3-1.5-4.3c-.2-.5-.7-.8-1.3-.6-.5.2-.8.7-.6 1.3l2.2 6.3c.1.4.5.7.9.7.1 0 .2 0 .3-.1l6.3-2.2c.5-.2.8-.7.6-1.3-.2-.5-.7-.8-1.3-.6l-3.5 1.2 1.8-2.5c1.9-2.6 4.5-2.5 8.2-2.4 1.5.1 3.1.1 4.8 0 4.4 0 7.9-3.6 7.9-7.9 0-3.5-2.4-6.7-5.8-7.6C52.2.9 34.2-3.9 29.1 7.5zM7.6 42.6c-.4.4-.4 1 0 1.4s1 .4 1.4 0 .4-1 0-1.4-1.1-.4-1.4 0zM11.9 42.6c-.4.4-.4 1 0 1.4s1 .4 1.4 0 .4-1 0-1.4-1.1-.4-1.4 0zM16.2 48.3c-.4.4-.4 1 0 1.4s1 .4 1.4 0 .4-1 0-1.4c-.3-.4-1-.4-1.4 0zM20.5 48.3c-.4.4-.4 1 0 1.4s1 .4 1.4 0 .4-1 0-1.4c-.3-.4-1-.4-1.4 0z" fill="#8773ee" data-original="#000000"></path>
    <path d="M62.4 50.3V36.6c0-2.3-4-3.3-7.6-3.3s-7.6 1-7.6 3.3v13.8c0 2.3 4 3.3 7.6 3.3h.3v3.2c-1.5.4-2.6 1.5-3 3H39.4c-.4-1.8-2.1-3.1-4-3.1s-3.5 1.3-4 3.1H19.2c-.4-1.5-1.5-2.6-3-3v-4.1h9.6c.6 0 1-.4 1-1V40.4c0-.6-.4-1-1-1H4.6c-.6 0-1 .4-1 1v11.4c0 .6.4 1 1 1h9.6v4.1c-1.8.4-3.1 2.1-3.1 4 0 2.3 1.8 4.1 4.1 4.1 1.9 0 3.5-1.3 4-3.1h12.2c.5 1.8 2.1 3.1 4 3.1s3.5-1.3 4-3.1h12.7c.5 1.8 2.1 3.1 4 3.1 2.3 0 4.1-1.8 4.1-4.1 0-1.9-1.3-3.5-3.1-4v-3.4c2.8-.3 5.3-1.4 5.3-3.2zM5.6 41.4h19.2v3.7H5.6zm0 5.7h19.2v3.7H5.6zM15.2 63c-1.2 0-2.1-.9-2.1-2.1s.9-2.1 2.1-2.1c1.2 0 2.1.9 2.1 2.1 0 1.1-.9 2.1-2.1 2.1zm20.2 0c-1.2 0-2.1-.9-2.1-2.1 0-1.2.9-2.1 2.1-2.1s2.1.9 2.1 2.1c0 1.1-.9 2.1-2.1 2.1zm22.8-2.1c0 1.2-.9 2.1-2.1 2.1s-2.1-.9-2.1-2.1.9-2.1 2.1-2.1c1.1 0 2.1.9 2.1 2.1zm-9.1-22c1.5.7 3.6 1 5.6 1s4.1-.3 5.6-1v4.5c-.2.4-2.1 1.4-5.6 1.4-3.6 0-5.5-1-5.6-1.3zm5.6-3.7c3.6 0 5.5 1 5.6 1.3-.2.4-2.1 1.4-5.6 1.4-3.6 0-5.5-1-5.6-1.3.2-.4 2.1-1.4 5.6-1.4zm-5.6 15.1v-4.5c3 1.3 8.3 1.3 11.3 0v4.5c-.2.4-2.1 1.4-5.6 1.4s-5.6-1-5.7-1.4z" fill="#8773ee" data-original="#000000"></path>
  </g>
</svg>
