<svg height="511pt" viewBox="0 0 511 511.99878" width="511pt"
  xmlns="http://www.w3.org/2000/svg">
  <path fill="#8773ee" d="m512.398438 256.003906c0-2.933594-1.703126-5.59375-4.367188-6.816406l-131.21875-60.320312 131.21875-60.320313c5.683594-2.613281 5.6875-11.015625 0-13.628906l-248.5-114.234375c-2.046875-.9375-4.40625-.910156-6.425781.078125l-22.503907 11c-8.671874 4.238281-2.144531 17.738281 6.589844 13.476562l19.304688-9.4375 42.371094 19.476563-42.753907 19.65625-55.089843-25.25c-2.753907-1.261719-5.246094-2.375-8.253907-1l-188 86.234375c-5.6875 2.609375-5.695312 11.015625-.003906 13.628906l131.21875 60.324219-25.71875 11.820312c-8.773437 4.03125-2.558594 17.6875 6.265625 13.628906l37-17.007812c.132812-.058594.257812-.132812.382812-.199219l99.351563 45.667969c1.976563.910156 4.292969.910156 6.265625 0l99.324219-45.65625 128.085937 58.878906-230.542968 105.976563-230.546876-105.976563 50.4375-23.1875c8.773438-4.03125 2.566407-17.691406-6.261718-13.628906l-65.265625 30c-5.679688 2.613281-5.6875 11.015625 0 13.628906l131.222656 60.320313-131.222656 60.320312c-5.679688 2.613281-5.6875 11.015625 0 13.628907l248.503906 114.234374c1.972656.90625 4.292969.90625 6.265625 0l43-19.769531c8.769531-4.03125 2.566406-17.691406-6.265625-13.628906l-39.867187 18.328125-230.546876-105.976562 128.089844-58.882813 99.324219 45.660156c1.972656.90625 4.292969.90625 6.265625 0l99.773438-45.867187c.566406.527344 1.222656.976562 1.960937 1.316406l125.675781 57.769531-141.675781 65.128907c-8.773437 4.035156-2.558594 17.6875 6.265625 13.628906l156.5-71.941406c5.683594-2.613282 5.6875-11.015626 0-13.628907l-131.21875-60.320312 131.21875-60.320313c2.664062-1.222656 4.367188-3.882812 4.367188-6.8125zm-195.574219-56.070312-42.46875-19.523438 46.675781-21.457031 42.316406 19.59375zm-167.328125-21.363282 42.472656-19.523437 46.472656 21.363281-42.472656 19.523438zm-63.21875-29.058593 42.472656-19.523438 45.261719 20.804688-42.472657 19.523437zm47.496094-77.265625 42.183593 19.53125-47.207031 21.703125-42.390625-19.488281zm60.074218 27.816406 45.097656 20.882812-46.976562 21.59375-45.261719-20.804687zm232.667969-6.105469-42.5625 19.566407-46.542969-21.332032 42.632813-19.597656zm-60.539063 27.828125-44.921874 20.648438-46.304688-21.441406 44.683594-20.539063zm15.285157 48.527344-42.3125-19.59375 45.011719-20.691406 42.53125 19.492187zm-124.402344-57.605469-45.097656-20.878906 44.359375-20.394531 45.328125 20.777344zm-46.933594 38.085938 46.910157-21.566407 46.304687 21.441407-46.742187 21.488281zm234.542969-9.535157-42.535156-19.492187 42.539062-19.554687 42.46875 19.523437zm-127.644531-97.726562 45.261719 20.808594-42.660157 19.609375-45.328125-20.777344zm-122.953125 40.011719-42.164063-19.523438 44.101563-20.226562 42.328125 19.402343zm-125.484375 18.695312 42.40625 19.496094-42.472657 19.523437-42.453124-19.515624zm188.011719 125.472657-42.472657-19.523438 42.472657-19.523438 42.46875 19.523438zm0 0"/>
</svg>
