<svg xmlns="http://www.w3.org/2000/svg" version="1.1"
  xmlns:xlink="http://www.w3.org/1999/xlink"
  xmlns:svgjs="http://svgjs.com/svgjs" width="512" height="512" x="0" y="0" viewBox="0 0 64 64" style="enable-background:new 0 0 512 512" xml:space="preserve" class="">
  <g>
    <path d="M31.787 18a14 14 0 1 0 14 14 14.016 14.016 0 0 0-14-14Zm2.133 21.07v4.729a11.42 11.42 0 0 1-4.27 0v-4.73a1 1 0 0 0-.558-.897 6.155 6.155 0 0 1-.992-10.464V33a1 1 0 0 0 1 1h5.37a1 1 0 0 0 1-1v-5.303a6.154 6.154 0 0 1-.991 10.475 1 1 0 0 0-.56.898Zm2 4.181v-3.585a8.15 8.15 0 0 0-1.075-14.593A1 1 0 0 0 33.47 26v6H30.1v-5.99a1 1 0 0 0-1.375-.927 8.15 8.15 0 0 0-1.075 14.583v3.584a12 12 0 1 1 8.27.001Z" fill="#8773ee" data-original="#000000" class=""></path>
    <path d="M49.244 37.543a.927.927 0 0 1 .865-.693h1.3a1 1 0 0 0 .98-.808 20.746 20.746 0 0 0 0-8.083 1 1 0 0 0-.98-.81h-1.3a.927.927 0 0 1-.865-.692 18.282 18.282 0 0 0-1.195-2.877.927.927 0 0 1 .122-1.104l.924-.924a1 1 0 0 0 .122-1.266A20.99 20.99 0 0 0 43.5 14.57a1.002 1.002 0 0 0-1.266.122l-.923.924a.929.929 0 0 1-1.105.122 18.258 18.258 0 0 0-2.877-1.195.926.926 0 0 1-.692-.865v-1.3a1 1 0 0 0-.809-.98 20.852 20.852 0 0 0-8.084 0 1 1 0 0 0-.809.98v1.3a.926.926 0 0 1-.692.865 18.258 18.258 0 0 0-2.877 1.195.929.929 0 0 1-1.104-.122l-.924-.924a1.002 1.002 0 0 0-1.266-.122 20.99 20.99 0 0 0-5.716 5.716 1 1 0 0 0 .122 1.266l.924.923a.928.928 0 0 1 .122 1.105 18.302 18.302 0 0 0-1.195 2.877.927.927 0 0 1-.865.693h-1.299a1 1 0 0 0-.981.809 20.746 20.746 0 0 0 0 8.083 1 1 0 0 0 .981.808h1.299a.927.927 0 0 1 .865.693 18.264 18.264 0 0 0 1.195 2.876.928.928 0 0 1-.122 1.105l-.924.924a1 1 0 0 0-.122 1.266 20.99 20.99 0 0 0 5.716 5.716 1 1 0 0 0 1.266-.122l.924-.924a.93.93 0 0 1 1.104-.122 18.258 18.258 0 0 0 2.877 1.195.926.926 0 0 1 .693.865v1.3a1 1 0 0 0 .808.98 20.751 20.751 0 0 0 8.084 0 1 1 0 0 0 .809-.98v-1.3a.926.926 0 0 1 .692-.865 18.258 18.258 0 0 0 2.877-1.195.93.93 0 0 1 1.105.122l.923.924a1 1 0 0 0 1.266.122 20.99 20.99 0 0 0 5.716-5.716 1 1 0 0 0-.122-1.266l-.924-.923a.927.927 0 0 1-.121-1.106 18.334 18.334 0 0 0 1.194-2.876Zm-1.906-.606a16.316 16.316 0 0 1-1.063 2.56 2.927 2.927 0 0 0 .482 3.442l.329.329a18.976 18.976 0 0 1-4.031 4.03l-.33-.328a2.926 2.926 0 0 0-3.44-.483 16.266 16.266 0 0 1-2.56 1.064 2.93 2.93 0 0 0-2.087 2.771v.458a18.662 18.662 0 0 1-5.701 0v-.458a2.93 2.93 0 0 0-2.087-2.771 16.266 16.266 0 0 1-2.56-1.064 2.927 2.927 0 0 0-3.441.483l-.33.328a18.985 18.985 0 0 1-4.03-4.03l.328-.33a2.93 2.93 0 0 0 .484-3.44 16.147 16.147 0 0 1-1.065-2.561 2.93 2.93 0 0 0-2.771-2.087h-.458a18.594 18.594 0 0 1 0-5.7h.458a2.93 2.93 0 0 0 2.771-2.087 16.186 16.186 0 0 1 1.065-2.561 2.93 2.93 0 0 0-.484-3.441l-.329-.329a18.985 18.985 0 0 1 4.032-4.03l.329.328a2.93 2.93 0 0 0 3.44.483 16.266 16.266 0 0 1 2.56-1.064 2.93 2.93 0 0 0 2.088-2.771v-.458a18.662 18.662 0 0 1 5.7 0v.458a2.93 2.93 0 0 0 2.088 2.771 16.266 16.266 0 0 1 2.56 1.064 2.928 2.928 0 0 0 3.44-.483l.33-.328a18.985 18.985 0 0 1 4.03 4.03l-.328.33a2.927 2.927 0 0 0-.483 3.44 16.276 16.276 0 0 1 1.064 2.56v.001a2.93 2.93 0 0 0 2.771 2.087h.458a18.594 18.594 0 0 1 0 5.7h-.458a2.93 2.93 0 0 0-2.771 2.087ZM58 11a5 5 0 1 0-5 5 5.006 5.006 0 0 0 5-5Zm-8 0a3 3 0 1 1 3 3 3.003 3.003 0 0 1-3-3ZM16 53a5 5 0 1 0-5 5 5.006 5.006 0 0 0 5-5Zm-8 0a3 3 0 1 1 3 3 3.003 3.003 0 0 1-3-3Z" fill="#8773ee" data-original="#000000" class=""></path>
    <path d="M6.879 46.499a29.007 29.007 0 0 1 39.62-39.62l1.002-1.731A31.008 31.008 0 0 0 5.148 47.501ZM57.121 17.501a29.008 29.008 0 0 1-39.597 39.633l-1 1.733a31.008 31.008 0 0 0 42.328-42.368Z" fill="#8773ee" data-original="#000000" class=""></path>
  </g>
</svg>
