<svg id="visual" viewBox="0 0 1920 1080" width="1920" height="1080" xmlns="http://www.w3.org/2000/svg" xmlns:xlink="http://www.w3.org/1999/xlink" version="1.1"><g><g transform="translate(948 977)"><path d="M0 -78.7L68.2 -39.4L68.2 39.4L0 78.7L-68.2 39.4L-68.2 -39.4Z" stroke="#676767" fill="none" stroke-width="2"></path></g><g transform="translate(1695 280)"><path d="M0 -49L42.4 -24.5L42.4 24.5L0 49L-42.4 24.5L-42.4 -24.5Z" stroke="#676767" fill="none" stroke-width="2"></path></g><g transform="translate(815 609)"><path d="M0 -32L27.7 -16L27.7 16L0 32L-27.7 16L-27.7 -16Z" stroke="#676767" fill="none" stroke-width="2"></path></g><g transform="translate(398 253)"><path d="M0 -28L24.2 -14L24.2 14L0 28L-24.2 14L-24.2 -14Z" stroke="#676767" fill="none" stroke-width="2"></path></g><g transform="translate(1756 777)"><path d="M0 -39L33.8 -19.5L33.8 19.5L0 39L-33.8 19.5L-33.8 -19.5Z" stroke="#676767" fill="none" stroke-width="2"></path></g><g transform="translate(1150 934)"><path d="M0 -20L17.3 -10L17.3 10L0 20L-17.3 10L-17.3 -10Z" stroke="#676767" fill="none" stroke-width="2"></path></g><g transform="translate(1202 265)"><path d="M0 -59L51.1 -29.5L51.1 29.5L0 59L-51.1 29.5L-51.1 -29.5Z" stroke="#676767" fill="none" stroke-width="2"></path></g><g transform="translate(212 410)"><path d="M0 -50L43.3 -25L43.3 25L0 50L-43.3 25L-43.3 -25Z" stroke="#676767" fill="none" stroke-width="2"></path></g><g transform="translate(754 401)"><path d="M0 -25L21.7 -12.5L21.7 12.5L0 25L-21.7 12.5L-21.7 -12.5Z" stroke="#676767" fill="none" stroke-width="2"></path></g><g transform="translate(1851 335)"><path d="M0 -26L22.5 -13L22.5 13L0 26L-22.5 13L-22.5 -13Z" stroke="#676767" fill="none" stroke-width="2"></path></g><g transform="translate(1092 117)"><path d="M0 -76L65.8 -38L65.8 38L0 76L-65.8 38L-65.8 -38Z" stroke="#676767" fill="none" stroke-width="2"></path></g><g transform="translate(1490 688)"><path d="M0 -61L52.8 -30.5L52.8 30.5L0 61L-52.8 30.5L-52.8 -30.5Z" stroke="#676767" fill="none" stroke-width="2"></path></g><g transform="translate(697 900)"><path d="M0 -69L59.8 -34.5L59.8 34.5L0 69L-59.8 34.5L-59.8 -34.5Z" stroke="#676767" fill="none" stroke-width="2"></path></g><g transform="translate(54 329)"><path d="M0 -34L29.4 -17L29.4 17L0 34L-29.4 17L-29.4 -17Z" stroke="#676767" fill="none" stroke-width="2"></path></g><g transform="translate(1018 612)"><path d="M0 -65L56.3 -32.5L56.3 32.5L0 65L-56.3 32.5L-56.3 -32.5Z" stroke="#676767" fill="none" stroke-width="2"></path></g><g transform="translate(1562 858)"><path d="M0 -32L27.7 -16L27.7 16L0 32L-27.7 16L-27.7 -16Z" stroke="#676767" fill="none" stroke-width="2"></path></g><g transform="translate(1209 592)"><path d="M0 -48L41.6 -24L41.6 24L0 48L-41.6 24L-41.6 -24Z" stroke="#676767" fill="none" stroke-width="2"></path></g><g transform="translate(1739 44)"><path d="M0 -67L58 -33.5L58 33.5L0 67L-58 33.5L-58 -33.5Z" stroke="#676767" fill="none" stroke-width="2"></path></g><g transform="translate(1047 814)"><path d="M0 -56L48.5 -28L48.5 28L0 56L-48.5 28L-48.5 -28Z" stroke="#676767" fill="none" stroke-width="2"></path></g><g transform="translate(195 744)"><path d="M0 -33L28.6 -16.5L28.6 16.5L0 33L-28.6 16.5L-28.6 -16.5Z" stroke="#676767" fill="none" stroke-width="2"></path></g><g transform="translate(1879 153)"><path d="M0 -72L62.4 -36L62.4 36L0 72L-62.4 36L-62.4 -36Z" stroke="#676767" fill="none" stroke-width="2"></path></g><g transform="translate(1688 544)"><path d="M0 -40L34.6 -20L34.6 20L0 40L-34.6 20L-34.6 -20Z" stroke="#676767" fill="none" stroke-width="2"></path></g></g></svg>