<svg version="1.2" xmlns="http://www.w3.org/2000/svg" viewBox="0 0 1000 730" width="1000" height="730">
	<title>2965737-ai</title>
	<style>
		.s0 { fill: #f1eefd } 
		.s1 { fill: none;stroke: #c3c8ff;stroke-width: 2 } 
		.s2 { fill: #6876eb } 
		.s3 { fill: #1c145e } 
		.s4 { fill: none;stroke: #6876eb;stroke-width: 8 } 
		.s5 { fill: none;stroke: #6876eb;stroke-width: 2 } 
		.s6 { fill: #e9a394 } 
		.s7 { fill: #e37a82 } 
		.s8 { fill: #16005c } 
		.s9 { fill: none;stroke: #16005c;stroke-width: 4 } 
		.s10 { fill: none;stroke: #16005c } 
		.s11 { fill: #1c145c } 
		.s12 { fill: #ffffff } 
		.s13 { fill: #5321d7 } 
		.s14 { fill: #6a3fdc } 
		.s15 { fill: none;stroke: #5321d7;stroke-width: 2 } 
		.s16 { fill: none;stroke: #c4c6c5;stroke-width: 2 } 
		.s17 { fill: none;stroke: #1c145e;stroke-width: 2 } 
		.s18 { fill: none;stroke: #7079f1;stroke-width: 4 } 
		.s19 { fill: #7079f1 } 
		.s20 { fill: #c3c8ff } 
		.s21 { fill: none;stroke: #7079f1;stroke-width: 2 } 
		.s22 { fill: none;stroke: #1c145e } 
		.s23 { fill: none;stroke: #ffffff;stroke-width: 2 } 
	</style>
	<g id="BACKGROUND">
		<path id="&lt;Path&gt;" class="s0" d="m114.4 683.2c0 0-65.4-153.9 17.3-270.2 82.7-116.4 32.2-219.5 177.4-322.1 186.7-132 366.7-1.8 420.4 86.5 53.7 88.2 236 43.2 183 294.4-41.1 194.8-10.4 203.3-10.4 203.3z"/>
		<path id="&lt;Path&gt;" class="s1" d="m153.8 641.6c0 0-116.1-60.6-88.1-197 27.9-136.3 141.8-168.6 188.7-158.6 87.7 18.7-55.7 74.1-89.9-20.9-43-119.2 110.2-209.5 252.3-186.1 91.3 15 135.4 58.7 216.6 86.2 80.8 27.3 114.8-9.3 82.5-30.6-30.6-20.1-141.6 12.8-103.5 57.9 52.2 61.7 178.1-33.9 275.6 72.6 97.5 106.5 12.8 240.4-62.1 251.6-75 11.1-42.1-96.5 74.9-11.2 117.1 85.3-30.8 177.7-30.8 177.7"/>
	</g>
	<g id="OBJECTS">
		<g id="&lt;Group&gt;">
			<path id="&lt;Path&gt;" class="s2" d="m950.6 691.8h-887.1c-4.7 0-8.5-3.9-8.5-8.6 0-4.7 3.8-8.5 8.5-8.5h895.6v8.5c0 4.7-3.8 8.6-8.5 8.6z"/>
			<path id="&lt;Path&gt;" class="s3" d="m382.3 691.8h-318.8c-4.7 0-8.5-3.9-8.5-8.6v-8.5h335.8v8.5c0 4.7-3.8 8.6-8.5 8.6z"/>
		</g>
		<g id="&lt;Group&gt;">
			<path id="&lt;Path&gt;" class="s3" d="m514.8 349.7c-37.9 73-80.6 102.7-80.6 102.7l36.8 58.9 64.4-66.9z"/>
			<path id="&lt;Path&gt;" class="s3" d="m609 332.2l-94.2 17.5c-5.9 178.2-8.2 325-8.2 325h169.1c0 0 4.9-272.9-22.3-332.4z"/>
			<path id="&lt;Path&gt;" class="s4" d="m598.1 423.1l45.9-3.9"/>
			<path id="&lt;Path&gt;" class="s5" d="m577 384.8c0-0.1 29.2 198.7 3.8 279.1"/>
			<path id="&lt;Path&gt;" class="s5" d="m546.5 484.3c0 0 28.2 11.3 64.6 12.5 36.5 1.2 13.8 20.6-40.2 17"/>
			<path id="&lt;Path&gt;" class="s6" d="m553.8 325l23.2 61.8 32-54.6-21.1-34.4z"/>
			<path id="&lt;Path&gt;" class="s2" d="m577 386.8l43.4-12-11.4-42.6z"/>
			<path id="&lt;Path&gt;" class="s2" d="m559 338.7l-23.6 26.3 41.6 21.8z"/>
			<path id="&lt;Path&gt;" class="s6" d="m471 511.3c0 0 13.8-28.7-15.7-65.7-16.4-20.5-24-55.8-24-55.8l-24.6 3.7 22.6 117.8z"/>
			<path id="&lt;Path&gt;" class="s6" d="m401.7 352.9l-10.1 9.1 13.5 11.9-42.2-0.7-0.9 14.5 44.7 5.8 24.6-3.7z"/>
			<path id="&lt;Path&gt;" class="s6" d="m409.1 375.4l-40.5-16.7-2.6 7.2 33.8 14.2z"/>
			<path id="&lt;Path&gt;" class="s3" d="m653.4 342.3c0 0 54.4 30.9 71.5 146.8l-63 15.2z"/>
			<g id="&lt;Group&gt;">
				<path id="&lt;Path&gt;" class="s6" d="m535.4 249.5l-20.6 52.5 15.7 4.9 4.9 29.6 50.1-11.5 7.2-80.3z"/>
				<path id="&lt;Path&gt;" class="s7" d="m568.8 262h-38.3l4.2-11.3 34.1-2.1z"/>
				<path id="&lt;Path&gt;" class="s8" d="m588.8 286c0 0-24.4-5.1-24.4-30.4 0 0-36.3 5-48.8-14.7-14.8-23.4 7.8-50.2 26.5-44.7 0 0-11.7 11.7 6.2 13 12.7 1 36.1-16 44.4 0.5 0 0 64.3 14.7 16.3 74.6z"/>
				<path id="&lt;Path&gt;" class="s9" d="m564.4 253.6c0 0-48.5 9.4-58.6-25.4-6-20.3 14.4-31.9 14.4-31.9"/>
				<g id="&lt;Group&gt;">
					<path id="&lt;Path&gt;" class="s10" d="m562.1 283.6c-0.9 10.1-9.7 17.6-19.8 16.7-10.1-0.9-17.5-9.7-16.7-19.8 0.9-10.1 9.8-17.5 19.9-16.7 10 0.9 17.5 9.8 16.6 19.8z"/>
					<path id="&lt;Path&gt;" class="s10" d="m561.2 276.1l26.1 1.5"/>
				</g>
				<path id="&lt;Path&gt;" class="s6" d="m620.4 290.6c0 11.3-15.2 20.5-26.5 20.5-11.3 0-14.5-9.2-14.5-20.5 0-11.4 9.2-20.6 20.5-20.6 11.3 0 20.5 9.2 20.5 20.6z"/>
			</g>
			<path id="&lt;Path&gt;" class="s6" d="m717.4 490.9v94.7h-47.2l-3.9-82.3z"/>
			<path id="&lt;Path&gt;" class="s11" d="m511.2 469.5l1.9-65.9-30.5 95.7z"/>
			<path id="&lt;Path&gt;" class="s7" d="m556.2 331.3l29.3-6.3-24 20.5z"/>
			<path id="&lt;Path&gt;" class="s8" d="m542.4 283.3c0 4-1.6 7.3-3.5 7.3-1.9 0-3.5-3.3-3.5-7.3 0-4.1 1.6-7.3 3.5-7.3 1.9 0 3.5 3.2 3.5 7.3z"/>
			<path id="&lt;Path&gt;" class="s8" d="m548.4 265.5c0-9.8-7.8-3.2-7.8-3.2z"/>
			<path id="&lt;Path&gt;" class="s12" d="m540.6 308.8l11.2-2.9c0 0 4.8 41.3-11.2 2.9z"/>
		</g>
		<g id="&lt;Group&gt;">
			<path id="&lt;Path&gt;" class="s13" d="m300.4 494.2c0 0 75.2-11.6 76.7 119.6 0.2 21.2 13.7 60.9 13.7 60.9h-68.1z"/>
			<path id="&lt;Path&gt;" class="s14" d="m221.7 482.6l-45.5 10.7 13.9 181.4h176.9c0 0-5.9-143.5-72.6-186.6z"/>
			<path id="&lt;Path&gt;" class="s14" d="m176.2 493.3c-46.8 10.7-35.9 46.7-26.8 120.5-23.4 19-1 27.6-1 27.6-25.7 27.2 6.4 33.3 6.4 33.3h85.5c0 0-17.2-192.1-64.1-181.4z"/>
			<path id="&lt;Path&gt;" class="s15" d="m235.3 632.8l-20.6-94.2"/>
			<path id="&lt;Path&gt;" class="s6" d="m154.8 674.7c0 0 14.4-33.2 60.1-49.8 37.8-13.8 93.2 22 128.6-12.1l6.6 38.4-109.8 23.5z"/>
			<g id="&lt;Group&gt;">
				<g id="&lt;Group&gt;">
					<path id="&lt;Path&gt;" class="s6" d="m305.3 389.1l33.8 51.6-21.7 7.7-3.8 41.9-65.2-22.7 6.1-85.2z"/>
					<path id="&lt;Path&gt;" class="s7" d="m255.1 443.3l-33.4 39.3 42.8 52.4 19.3-61.2z"/>
					<path id="&lt;Path&gt;" class="s7" d="m266.2 418.9l47.8-16.5-8.7-13.3-47.2 5z"/>
					<path id="&lt;Path&gt;" class="s8" d="m262.1 437c0 0 14.4 28.9 4.4-26.9 0 0 13.7 1.6 24.4-16.5 0 0-3.3 29.5 28.2 0 31.5-29.5-8.5-52.6-57.5-43.9-42.4 7.5-84.9 31.5-22.8 112.7z"/>
					<path id="&lt;Path&gt;" class="s6" d="m254.4 448.5c-3.3 4.3-8.9 8.3-14.7 9.1-11.6 1.7-23-7.4-24.7-19.1-1.7-11.6 4.2-17.6 15.8-19.3 6.6-1 14.1 0.9 19.8 4.9 1.7 2.1 3.8 24.4 3.8 24.4z"/>
					<path id="&lt;Path&gt;" class="s8" d="m301.6 424.3c1.1 4 0.6 7.6-1.2 8.1-1.7 0.4-4-2.4-5.1-6.4-1.1-3.9-0.5-7.6 1.2-8 1.8-0.5 4 2.3 5.1 6.3z"/>
					<path id="&lt;Path&gt;" class="s8" d="m287.2 415.1c0 0-1.7-9.6 7.2-5z"/>
				</g>
				<path id="&lt;Path&gt;" class="s14" d="m216.3 484.2l7.8-8.9-2.8-6.6 17.5-6.3 50.3 25.3 1.8 19.3-8.5-2.7-13.9 51.8z"/>
				<path id="&lt;Path&gt;" class="s15" d="m261.8 496.8l29.1 10.2-1.8-19.3"/>
				<path id="&lt;Path&gt;" class="s8" d="m266.5 410.1c0 0 5.9 34.2 14.4 41.2 2.9 2.3 8.2-3.6 32.7-4.1 15.1-0.3 15 52.1-4.9 50.6-19.9-1.5-50.2-13.9-54.7-52.1-4-33.5 12.5-35.6 12.5-35.6z"/>
				<path id="&lt;Path&gt;" class="s16" d="m290.9 457.6c0 0 5.1 9.5 15.1 3.1"/>
			</g>
		</g>
		<g id="&lt;Group&gt;">
			<path id="&lt;Path&gt;" class="s3" d="m404.8 653.1h-167.9v12.5c0 5 4.1 9.1 9.1 9.1h158.8c5 0 9.1-4.1 9.1-9.1v-3.3c0-5.1-4.1-9.2-9.1-9.2z"/>
			<g id="&lt;Group&gt;">
				<path id="&lt;Path&gt;" class="s3" d="m541.2 528.4h-195.4c-5.8 0-10.7 4.3-11.4 10.1l-15.7 123.2c-0.9 6.9 4.5 13 11.4 13h195.4c5.8 0 10.7-4.3 11.4-10.1l15.7-123.2c0.9-6.9-4.5-13-11.4-13z"/>
				<path id="&lt;Path&gt;" class="s2" d="m550.6 528.4h-195.3c-5.8 0-10.7 4.3-11.4 10.1l-15.8 123.2c-0.9 6.9 4.5 13 11.5 13h195.3c5.8 0 10.7-4.3 11.5-10.1l15.7-123.2c0.9-6.9-4.5-13-11.5-13z"/>
				<path id="&lt;Path&gt;" class="s12" d="m464.4 601.6c-1.1 10.6-10.7 19.2-21.3 19.2-10.7 0-18.4-8.6-17.3-19.2 1.2-10.7 10.7-19.3 21.3-19.3 10.7 0 18.4 8.6 17.3 19.3z"/>
			</g>
			<path id="&lt;Path&gt;" class="s17" d="m546.4 673.7h-243.2"/>
		</g>
		<g id="&lt;Group&gt;">
			<g id="&lt;Group&gt;">
				<g id="&lt;Group&gt;">
					<path id="&lt;Path&gt;" class="s8" d="m653.9 508.8l80.7 1.5-18.3-98.8-42.9 4.9c0 0-19.4 28.5-4.1 50.7 17.2 25.1-17.2 26-15.4 41.7z"/>
					<path id="&lt;Path&gt;" class="s18" d="m673.4 416.4c0 0-19.4 28.5-4.1 50.7 17.2 25.1-17.2 26-15.4 41.7"/>
				</g>
				<path id="&lt;Path&gt;" class="s19" d="m689.5 496.8c0 0-36.8 36.1-56.1 171.9h40.8z"/>
				<path id="&lt;Path&gt;" class="s20" d="m786.5 486.8l-16 181.9h-118.7l14.8-69.5c0 0-45.2-23.6 22.9-102.4l16.9-8.7 73.5-5.5z"/>
				<path id="&lt;Path&gt;" class="s21" d="m689.5 578.2c0 0-7.2 12.2-0.3 22l-10.1 68.5"/>
				<path id="&lt;Path&gt;" class="s21" d="m672.9 599.5l68.7 2.1"/>
				<path id="&lt;Path&gt;" class="s21" d="m755.2 633.8l-7.3-87.5"/>
				<path id="&lt;Path&gt;" class="s20" d="m786.5 486.8c0 0 6.6 8.2 14.2 27.4 10.7 27.1 23.6 76.1 22.7 154.5h-52.9z"/>
				<path id="&lt;Path&gt;" class="s6" d="m823.4 674.7c0 0-26.4-60.5-92.9-43.2-72.6 18.9-99.5 15.4-99.5 15.4l-5.5 27.8z"/>
				<g id="&lt;Group&gt;">
					<path id="&lt;Path&gt;" class="s19" d="m754.2 618.8l-23.5 5.3 53.5 50.6h50.5c0 0-21.7-52.8-80.5-55.9z"/>
					<path id="&lt;Path&gt;" class="s1" d="m755.7 634.5l11.2-3.4"/>
				</g>
				<path id="&lt;Path&gt;" class="s6" d="m631 646.9l-34.5-7.1-24.7 34.9h53.7z"/>
				<path id="&lt;Path&gt;" class="s19" d="m689.5 578.2l64-64.1-11.9-5.6 44.9-21.7-20.6-13.1h-48l-28.4 35.6 7.8 2-7.8 5.5z"/>
				<g id="&lt;Group&gt;">
					<path id="&lt;Path&gt;" class="s6" d="m734.3 495.5l20.9-14.5-22.6-50.5-35 22 9.8 41.9-17.9 83.8z"/>
					<path id="&lt;Path&gt;" class="s7" d="m700.4 464.4l24.6-12.8-22 24z"/>
					<path id="&lt;Path&gt;" class="s6" d="m655.5 391.3l-10.8 59.5h16.1l18.1 24.8 46.1-24-32.2-71.7z"/>
					<path id="&lt;Path&gt;" class="s7" d="m652.9 405.7l-1.1 6.5 42.5-5.8-0.7-8.1z"/>
					<path id="&lt;Path&gt;" class="s8" d="m772.8 386.8c-10.6-28.9-23.6-40-23.6-40-26-25.9-70.6 2.9-70.6 2.9-57-13.9-33.9 57-33.9 57l46.5-5.7c6.5 39 29.7 19.2 29.7 19.2l10.9 19.6c0 0-10.9 9.6 0.4 26.2 9.4 13.7-13 18.3-7.2 32.8l89.8-18.6c0-59.1-22.7-41.4-42-93.5z"/>
					<path id="&lt;Path&gt;" class="s18" d="m641.1 407.2c0 0-8.2-40.5 6.9-53.7 7.8-6.8 32.6-3.8 32.6-3.8"/>
					<path id="&lt;Path&gt;" class="s9" d="m820.7 478.5c0 0 7.1-26.9-31.9-57.4"/>
					<path id="&lt;Path&gt;" class="s6" d="m741.6 422.9c0 10.7-8.6 19.4-19.3 19.4-10.7 0-19.4-8.7-19.4-19.4 0-10.6 8.7-19.3 19.4-19.3 10.7 0 19.3 8.7 19.3 19.3z"/>
				</g>
			</g>
			<path id="&lt;Path&gt;" class="s12" d="m672.9 448.6l12-3c0 0 4.2 34.2-12 3z"/>
			<g id="&lt;Group&gt;">
				<path id="&lt;Path&gt;" class="s22" d="m662.9 428.4c0 0 3.8-23.3 12.1 0"/>
				<path id="&lt;Path&gt;" class="s8" d="m665.8 410.7c0 0 4.7-7.9 10.2 0z"/>
			</g>
		</g>
		<g id="&lt;Group&gt;">
			<g id="&lt;Group&gt;">
				<path id="&lt;Path&gt;" class="s20" d="m485.3 201c-7-19.3-28.8-29-48-20.8-16.5 7.2-25.3 25.9-20.1 43.1 2.8 9.6 9.3 17.1 17.4 21.4 7.4 4.1 13.9 9.8 18.6 16.8l1.3 2.1 26.9-9.7-0.3-2.4c-0.9-8.6 0.6-17.2 3.8-25.2 3.1-7.8 3.5-16.7 0.4-25.3z"/>
				<path id="&lt;Path&gt;" class="s20" d="m485.3 201c-7-19.3-28.8-29-48-20.8-16.5 7.2-25.3 25.9-20.1 43.1 2.8 9.6 9.3 17.1 17.4 21.4 7.4 4.1 13.9 9.8 18.6 16.8l1.3 2.1 26.9-9.7-0.3-2.4c-0.9-8.6 0.6-17.2 3.8-25.2 3.1-7.8 3.5-16.7 0.4-25.3z"/>
				<path id="&lt;Path&gt;" class="s23" d="m460.7 255.7l-21.5-30.3c0 0 0.4-6.1 7.2-5.1 6.7 1 10.7 11.6 5.9 9.9-4.8-1.8-6.5-14.2 2.6-16.1 9.1-1.9 12.1 18.7 7.1 14.7-5-4-4-17.1 5.7-17.2l5.7 43.6"/>
				<path id="&lt;Path&gt;" class="s8" d="m480.8 274.6l-12.7 4.5c-4.8 1.7-10-0.8-11.8-5.6l-2.6-7.4c-1.8-4.8 0.7-10.1 5.5-11.8l12.6-4.5c4.8-1.8 10.1 0.7 11.9 5.5l2.6 7.5c1.8 4.7-0.7 10-5.5 11.8z"/>
				<path id="&lt;Path&gt;" class="s2" d="m490.4 261.6l-38 13.7-6.6-18.6 38-13.7z"/>
			</g>
			<path id="&lt;Path&gt;" class="s1" d="m450.6 168.1l-3.7-21.7"/>
			<path id="&lt;Path&gt;" class="s1" d="m423.3 181.1l-18.2-17.8"/>
			<path id="&lt;Path&gt;" class="s1" d="m404.3 213.3l-20.7 1.5"/>
			<path id="&lt;Path&gt;" class="s1" d="m480.5 180l9.3-17.3"/>
		</g>
		<g id="&lt;Group&gt;">
			<g id="&lt;Group&gt;">
				<g id="&lt;Group&gt;">
					<path id="&lt;Path&gt;" class="s11" d="m772.2 339.7h128.4c4.5 0 8.8-3.6 9.6-8.1l13.3-73.2c0.8-4.5-2.2-8.1-6.7-8.1h-128.4c-4.5 0-8.8 3.6-9.6 8.1l-13.2 73.2c-0.8 4.5 2.1 8.1 6.6 8.1z"/>
					<g id="&lt;Group&gt;">
						<path id="&lt;Path&gt;" class="s12" d="m861.6 295c-0.8 4.7 2.3 8.4 6.9 8.4 4.6 0 9.1-3.7 9.9-8.4 0.9-4.6-2.2-8.4-6.8-8.4-4.7 0-9.1 3.8-10 8.4z"/>
						<path id="&lt;Path&gt;" class="s12" d="m836.1 295c-0.8 4.7 2.3 8.4 6.9 8.4 4.6 0 9.1-3.7 9.9-8.4 0.9-4.6-2.2-8.4-6.9-8.4-4.6 0-9 3.8-9.9 8.4z"/>
						<path id="&lt;Path&gt;" class="s12" d="m810.6 295c-0.8 4.7 2.2 8.4 6.9 8.4 4.6 0 9.1-3.7 9.9-8.4 0.8-4.6-2.2-8.4-6.9-8.4-4.6 0-9.1 3.8-9.9 8.4z"/>
					</g>
				</g>
				<path id="&lt;Path&gt;" class="s11" d="m841.3 334.9l-44.6 26.5 8-28.6z"/>
			</g>
			<g id="&lt;Group&gt;">
				<g id="&lt;Group&gt;">
					<path id="&lt;Path&gt;" class="s20" d="m358.4 328.9h-128.5c-4.5 0-8.7-3.7-9.5-8.1l-13.3-73.3c-0.8-4.4 2.1-8 6.6-8h128.5c4.4 0 8.7 3.6 9.5 8l13.3 73.3c0.8 4.4-2.2 8.1-6.6 8.1z"/>
					<g id="&lt;Group&gt;">
						<path id="&lt;Path&gt;" class="s12" d="m268.9 284.2c0.9 4.6-2.2 8.4-6.9 8.4-4.6 0-9-3.8-9.9-8.4-0.8-4.7 2.3-8.4 6.9-8.4 4.6 0 9.1 3.7 9.9 8.4z"/>
						<path id="&lt;Path&gt;" class="s12" d="m294.4 284.2c0.9 4.6-2.2 8.4-6.8 8.4-4.7 0-9.1-3.8-10-8.4-0.8-4.7 2.3-8.4 6.9-8.4 4.6 0 9.1 3.7 9.9 8.4z"/>
						<path id="&lt;Path&gt;" class="s12" d="m319.9 284.2c0.9 4.6-2.2 8.4-6.8 8.4-4.7 0-9.1-3.8-10-8.4-0.8-4.7 2.3-8.4 6.9-8.4 4.7 0 9.1 3.7 9.9 8.4z"/>
					</g>
				</g>
				<path id="&lt;Path&gt;" class="s20" d="m312.5 324.1l7.1 25.6 28.5-27.4z"/>
			</g>
		</g>
	</g>
</svg>