<svg xmlns="http://www.w3.org/2000/svg" version="1.1"
  xmlns:xlink="http://www.w3.org/1999/xlink"
  xmlns:svgjs="http://svgjs.com/svgjs" width="512" height="512" x="0" y="0" viewBox="0 0 512 512" style="enable-background:new 0 0 512 512" xml:space="preserve" class="">
  <g>
    <path d="m346.915 474.195-6.802-6.802a45.752 45.752 0 0 1-13.401-32.353v-63.881M185.289 371.159v63.881a45.752 45.752 0 0 1-13.401 32.353l-6.802 6.802" style="stroke-width:15;stroke-linecap:round;stroke-linejoin:round;stroke-miterlimit:10;" fill="none" stroke="#8773ee" stroke-width="15" stroke-linecap="round" stroke-linejoin="round" stroke-miterlimit="10" data-original="#000000" class=""></path>
    <path d="M87.23 7.5H7.5v363.66h396M122.23 7.5H504.5v363.66h-66M504.5 330.752H7.5M171.16 504.5h226.26v-30.3H114.58v30.3h21.58" style="stroke-width:15;stroke-linecap:round;stroke-linejoin:round;stroke-miterlimit:10;" fill="none" stroke="#8773ee" stroke-width="15" stroke-linecap="round" stroke-linejoin="round" stroke-miterlimit="10" data-original="#000000" class=""></path>
    <path d="M458.033 169.126S367.58 300.447 256 300.447 53.967 169.126 53.967 169.126 144.421 37.805 256 37.805s202.033 131.321 202.033 131.321z" style="stroke-width:15;stroke-linecap:round;stroke-linejoin:round;stroke-miterlimit:10;" fill="none" stroke="#8773ee" stroke-width="15" stroke-linecap="round" stroke-linejoin="round" stroke-miterlimit="10" data-original="#000000" class=""></path>
    <path d="M358.342 179.095v-19.939a6.09 6.09 0 0 0-5.198-6.024l-23.553-3.485a75.682 75.682 0 0 0-7.796-18.763L336 111.744a6.09 6.09 0 0 0-.584-7.935L321.317 89.71a6.09 6.09 0 0 0-7.935-.584l-19.14 14.205a75.698 75.698 0 0 0-18.763-7.796l-3.485-23.553a6.09 6.09 0 0 0-6.024-5.198h-19.939a6.09 6.09 0 0 0-6.024 5.198l-3.485 23.553a75.682 75.682 0 0 0-18.763 7.796l-19.14-14.205a6.09 6.09 0 0 0-7.935.584l-14.099 14.099a6.09 6.09 0 0 0-.584 7.935l14.205 19.14a75.698 75.698 0 0 0-7.796 18.763l-23.553 3.485a6.09 6.09 0 0 0-5.198 6.024v19.939a6.09 6.09 0 0 0 5.198 6.024l23.553 3.485a75.682 75.682 0 0 0 7.796 18.763L176 226.508a6.09 6.09 0 0 0 .584 7.935l14.099 14.099a6.09 6.09 0 0 0 7.935.584l19.14-14.205a75.698 75.698 0 0 0 18.763 7.796l3.485 23.553a6.09 6.09 0 0 0 6.024 5.198h19.939a6.09 6.09 0 0 0 6.024-5.198l3.485-23.553a75.682 75.682 0 0 0 18.763-7.796l19.14 14.205a6.09 6.09 0 0 0 7.935-.584l14.099-14.099a6.09 6.09 0 0 0 .584-7.935l-14.205-19.14a75.698 75.698 0 0 0 7.796-18.763l23.553-3.485a6.092 6.092 0 0 0 5.199-6.025z" style="stroke-width:15;stroke-linecap:round;stroke-linejoin:round;stroke-miterlimit:10;" fill="none" stroke="#8773ee" stroke-width="15" stroke-linecap="round" stroke-linejoin="round" stroke-miterlimit="10" data-original="#000000" class=""></path>
    <circle cx="256" cy="169.126" r="45.457" style="stroke-width:15;stroke-linecap:round;stroke-linejoin:round;stroke-miterlimit:10;" fill="none" stroke="#8773ee" stroke-width="15" stroke-linecap="round" stroke-linejoin="round" stroke-miterlimit="10" data-original="#000000" class=""></circle>
    <circle cx="454.081" cy="58.008" r="20.203" style="stroke-width:15;stroke-linecap:round;stroke-linejoin:round;stroke-miterlimit:10;" fill="none" stroke="#8773ee" stroke-width="15" stroke-linecap="round" stroke-linejoin="round" stroke-miterlimit="10" data-original="#000000" class=""></circle>
    <path d="M433.878 58.008h-31.13L376.15 84.606" style="stroke-width:15;stroke-linecap:round;stroke-linejoin:round;stroke-miterlimit:10;" fill="none" stroke="#8773ee" stroke-width="15" stroke-linecap="round" stroke-linejoin="round" stroke-miterlimit="10" data-original="#000000" class=""></path>
    <circle cx="454.081" cy="280.244" r="20.203" style="stroke-width:15;stroke-linecap:round;stroke-linejoin:round;stroke-miterlimit:10;" fill="none" stroke="#8773ee" stroke-width="15" stroke-linecap="round" stroke-linejoin="round" stroke-miterlimit="10" data-original="#000000" class=""></circle>
    <path d="M433.878 280.244h-31.13l-26.598-26.598" style="stroke-width:15;stroke-linecap:round;stroke-linejoin:round;stroke-miterlimit:10;" fill="none" stroke="#8773ee" stroke-width="15" stroke-linecap="round" stroke-linejoin="round" stroke-miterlimit="10" data-original="#000000" class=""></path>
    <circle cx="57.919" cy="58.008" r="20.203" style="stroke-width:15;stroke-linecap:round;stroke-linejoin:round;stroke-miterlimit:10;" fill="none" stroke="#8773ee" stroke-width="15" stroke-linecap="round" stroke-linejoin="round" stroke-miterlimit="10" data-original="#000000" class=""></circle>
    <path d="M78.122 58.008h31.13l26.598 26.598" style="stroke-width:15;stroke-linecap:round;stroke-linejoin:round;stroke-miterlimit:10;" fill="none" stroke="#8773ee" stroke-width="15" stroke-linecap="round" stroke-linejoin="round" stroke-miterlimit="10" data-original="#000000" class=""></path>
    <circle cx="57.919" cy="280.244" r="20.203" style="stroke-width:15;stroke-linecap:round;stroke-linejoin:round;stroke-miterlimit:10;" fill="none" stroke="#8773ee" stroke-width="15" stroke-linecap="round" stroke-linejoin="round" stroke-miterlimit="10" data-original="#000000" class=""></circle>
    <path d="M78.122 280.244h31.13l26.598-26.598" style="stroke-width:15;stroke-linecap:round;stroke-linejoin:round;stroke-miterlimit:10;" fill="none" stroke="#8773ee" stroke-width="15" stroke-linecap="round" stroke-linejoin="round" stroke-miterlimit="10" data-original="#000000" class=""></path>
  </g>
</svg>
